<svg xmlns="http://www.w3.org/2000/svg" fill="none" viewBox="-2 -2 28 28" id="Jest--Streamline-Svg-Logos" height="28" width="28" style="background-color: #ffffff">
  <desc>
    Jest Streamline Icon: https://streamlinehq.com
  </desc>
  <path fill="#99425b" d="M21.307325 11.82045c0 -1.20805 -0.9793 -2.18735 -2.1874 -2.18735 -0.077675 0 -0.15435 0.004175 -0.229875 0.012075L21.894375 0.78421H9.126925L12.127075 9.6375c-0.044 -0.002675 -0.08825 -0.0044 -0.1329 -0.0044 -1.20805 0 -2.1874 0.9793 -2.1874 2.18735 0 0.976525 0.63995 1.8032 1.5232 2.08445 -0.4665 0.808075 -1.0535 1.53585 -1.71995 2.16465 -0.906225 0.854925 -1.943375 1.50315 -3.06515 1.90265 -1.3355 -0.6861 -1.966225 -2.211925 -1.3971 -3.549775 0.0642 -0.1511 0.129875 -0.3042 0.192525 -0.456675 0.9676 -0.2258 1.68855 -1.093175 1.68855 -2.129575 0 -1.20805 -0.9793 -2.18735 -2.1874 -2.18735 -1.20805 0 -2.1874 0.9793 -2.1874 2.18735 0 0.7408 0.3686 1.395125 0.932 1.790825 -0.541375 1.232675 -1.3372175 2.522725 -1.5851525 4.017925 -0.2971375 1.791925 -0.0009625 3.693975 1.5488275 4.76815 3.60935 2.501575 7.527275 -1.5508 11.6582 -2.569475 1.497125 -0.3692 3.14045 -0.3097 4.459475 -1.073625 0.9905 -0.573725 1.6435 -1.524425 1.828825 -2.591825 0.183075 -1.05445 -0.083825 -2.104325 -0.69765 -2.9556 0.317475 -0.3797 0.50875 -0.86845 0.50875 -1.4021Z" stroke-width="0.25"></path>
  <path fill="#ffffff" d="M20.969625 16.086725c-0.1609 0.92665 -0.733225 1.736125 -1.57025 2.220925 -0.78025 0.4519 -1.71525 0.5868 -2.705175 0.72955 -0.530325 0.07645 -1.0787 0.155575 -1.614425 0.287675 -1.416525 0.349275 -2.788525 1.0308 -4.115325 1.689825 -2.655275 1.3189 -4.9484 2.457775 -7.110625 0.95925 -1.5838375 -1.097725 -1.5107 -3.1287 -1.326175 -4.24165 0.171 -1.031125 0.633325 -1.9807 1.080425 -2.8991 0.07725 -0.158775 0.15295 -0.3146 0.226625 -0.4691 0.221575 0.088525 0.4573 0.148925 0.702975 0.1764 -0.4551 1.501975 0.2606 3.135125 1.76285 3.90685l0.205575 0.105625 0.21775 -0.077525c1.1876 -0.42295 2.2819 -1.101625 3.25255 -2.0174 0.6274 -0.591925 1.16685 -1.246775 1.6102 -1.9465 0.132925 0.020025 0.268875 0.03055 0.4073 0.03055 1.37875 0 2.5205 -1.03075 2.69715 -2.361975 0.564375 -0.020675 1.163825 -0.02085 1.73145 -0.000225 0.17655 1.33135 1.318375 2.3622 2.69715 2.3622 0.5765 0 1.11125 -0.180675 1.551775 -0.4876 0.30585 0.626075 0.42 1.3305 0.2982 2.032225ZM4.841175 10.183c0.9116 0 1.653175 0.741625 1.653175 1.653175 0 0.327425 -0.09605 0.63275 -0.261025 0.889875 -0.274875 0.42855 -0.741825 0.722325 -1.278575 0.758975 -0.03755 0.00255 -0.075375 0.004325 -0.113575 0.004325 -0.203125 0 -0.397725 -0.037075 -0.57765 -0.104325 -0.363975 -0.13625 -0.66725 -0.397375 -0.858025 -0.730825 -0.1381 -0.241425 -0.2175 -0.52055 -0.2175 -0.818025 0 -0.91155 0.741625 -1.653175 1.653175 -1.653175Zm5.49955 1.637475c0 -0.828225 0.612225 -1.515925 1.4078 -1.63485 0.080075 -0.012025 0.16205 -0.018325 0.245375 -0.018325 0.52995 0 1.0018 0.2511 1.304425 0.640125 0.075225 0.096625 0.14045 0.2015 0.192975 0.313475 0.099725 0.212625 0.155775 0.4496 0.155775 0.699575 0 0.132175 -0.016025 0.26065 -0.045475 0.3839 -0.161125 0.67445 -0.7362 1.189925 -1.4409 1.260875 -0.054825 0.0055 -0.1105 0.0084 -0.1668 0.0084 -0.33005 0 -0.63755 -0.0976 -0.89595 -0.264925 -0.455175 -0.29485 -0.757225 -0.8068 -0.757225 -1.38825Zm6.899725 -1.9658c-0.35415 0.33885 -0.617525 0.7718 -0.748675 1.25865 -0.612175 -0.022975 -1.2613 -0.022975 -1.86995 0 -0.1398 -0.5189 -0.429775 -0.976675 -0.819825 -1.324425l1.7106 -3.45895 1.72785 3.524725ZM9.8718 1.318455h11.277075L18.485375 9.174075c-0.11545 0.027725 -0.228075 0.0626 -0.337375 0.10455l-2.631175 -5.3675 -2.638625 5.335425c-0.11405 -0.03925 -0.231575 -0.070875 -0.351875 -0.094875L9.8718 1.318455ZM20.772825 11.820475c0 0.165775 -0.0248 0.325775 -0.07035 0.47685 -0.108575 0.359425 -0.33635 0.6674 -0.637175 0.878 -0.2682 0.187725 -0.594175 0.298325 -0.94565 0.298325 -0.7633 0 -1.4072 -0.520175 -1.596475 -1.224625 -0.036775 -0.13675 -0.0567 -0.28035 -0.0567 -0.42855 0 -0.225975 0.045675 -0.441425 0.128125 -0.637775 0.04245 -0.101175 0.09545 -0.1968 0.1563 -0.28665 0.297525 -0.439075 0.799575 -0.72875 1.36875 -0.72875 0.0522 0 0.1037 0.002725 0.15465 0.007475 0.839325 0.078225 1.498525 0.786275 1.498525 1.6457Zm1.06845 0c0 -1.328725 -0.957325 -2.437375 -2.218275 -2.67425L22.6393 0.25h-14.25775l3.0209 8.91435c-1.217175 0.27085 -2.130175 1.358525 -2.130175 2.656125 0 0.974325 0.51495 1.8302 1.286625 2.311125 -0.371175 0.553025 -0.811375 1.073425 -1.31575 1.549325 -0.8 0.7547 -1.6912 1.327 -2.652 1.7036 -0.96775 -0.6079 -1.376875 -1.7543 -0.952 -2.75305l0.033275 -0.078275c0.02085 -0.048875 0.041675 -0.09785 0.06245 -0.14685 1.062975 -0.37075 1.827925 -1.382475 1.827925 -2.570175 0 -1.50075 -1.220925 -2.721625 -2.721625 -2.721625S2.11955 10.335425 2.11955 11.836175c0 0.757475 0.3113475 1.443425 0.81245 1.937325 -0.090825 0.19355 -0.18645 0.390425 -0.284575 0.591975 -0.4581575 0.94105 -0.9774275 2.007625 -1.17381 3.192025 -0.39004 2.3522 0.23912 4.232525 1.77156 5.294625C4.1751 23.496625 5.1194 23.75 6.06975 23.75c1.78945 0 3.599575 -0.899 5.37 -1.7784 1.27505 -0.633275 2.593525 -1.288175 3.89585 -1.60935 0.48455 -0.1195 0.9832 -0.191425 1.511125 -0.26755 1.046825 -0.151025 2.129325 -0.307125 3.08815 -0.86245 1.111475 -0.6438 1.872325 -1.7237 2.08745 -2.962725 0.184675 -1.0637 -0.03755 -2.1291 -0.579625 -3.0326 0.252675 -0.4129 0.398575 -0.897925 0.398575 -1.41645Z" stroke-width="0.25"></path>
</svg>